<svg xmlns="http://www.w3.org/2000/svg" version="1.1" xmlns:xlink="http://www.w3.org/1999/xlink" xmlns:svgjs="http://svgjs.dev/svgjs" width="1000" height="1000" viewBox="0 0 1000 1000"><rect width="1000" height="1000" fill="#f8ff1d"></rect><g transform="matrix(0.7,0,0,0.7,149.57576200957385,416.6906882160089)"><svg viewBox="0 0 396 95" data-background-color="#f8ff1d" preserveAspectRatio="xMidYMid meet" height="239" width="1000" xmlns="http://www.w3.org/2000/svg" xmlns:xlink="http://www.w3.org/1999/xlink"><g id="tight-bounds" transform="matrix(1,0,0,1,0.23999749172679685,-0.19345714597037045)"><svg viewBox="0 0 395.52 95.38691066048165" height="95.38691066048165" width="395.52"><g><svg viewBox="0 0 625.9609354288514 150.96197366682688" height="95.38691066048165" width="395.52"><g transform="matrix(1,0,0,1,0,20.863774942376224)"><svg viewBox="0 0 395.52 109.23442378207443" height="109.23442378207443" width="395.52"><g><svg viewBox="0 0 395.52 109.23442378207443" height="109.23442378207443" width="395.52"><g><svg viewBox="0 0 395.52 69.41275335492827" height="69.41275335492827" width="395.52"><g transform="matrix(1,0,0,1,0,0)"><svg width="395.52" viewBox="3.25 -36.54999923706055 211.02000427246094 37.040000915527344" height="69.41275335492827" data-palette-color="#0b0900"><path d="M10.25-35.01L10.25 0 3.25 0 3.25-35.01 10.25-35.01ZM51.49-25L51.49 0 44.5 0 44.5-25Q44.5-25.73 44.22-26.37 43.94-27 43.47-27.48 42.99-27.95 42.36-28.22 41.72-28.49 40.99-28.49L40.99-28.49Q40.26-28.49 39.62-28.22 38.99-27.95 38.51-27.48 38.03-27 37.77-26.37 37.5-25.73 37.5-25L37.5-25 37.5 0 30.49 0 30.49-25Q30.49-25.73 30.22-26.37 29.95-27 29.48-27.48 29-27.95 28.37-28.22 27.73-28.49 27-28.49L27-28.49Q26.27-28.49 25.63-28.22 25-27.95 24.52-27.48 24.05-27 23.78-26.37 23.51-25.73 23.51-25L23.51-25 23.51 0 16.5 0 16.5-25Q16.5-27.17 17.32-29.09 18.14-31.01 19.57-32.43 20.99-33.86 22.91-34.68 24.83-35.5 27-35.5L27-35.5Q28.95-35.5 30.76-34.8 32.57-34.11 34.01-32.79L34.01-32.79Q35.45-34.11 37.24-34.8 39.04-35.5 40.99-35.5L40.99-35.5Q43.16-35.5 45.08-34.68 46.99-33.86 48.42-32.43 49.85-31.01 50.67-29.09 51.49-27.17 51.49-25L51.49-25ZM85.79-17.5L85.79-17.5Q85.79-15.09 85.16-12.85 84.54-10.62 83.39-8.68 82.25-6.74 80.66-5.14 79.07-3.54 77.12-2.39 75.17-1.25 72.93-0.62 70.7 0 68.28 0L68.28 0 57.73 0 57.73-35.01 68.28-35.01Q70.7-35.01 72.93-34.39 75.17-33.76 77.12-32.62 79.07-31.47 80.66-29.87 82.25-28.27 83.39-26.33 84.54-24.39 85.16-22.16 85.79-19.92 85.79-17.5ZM78.78-17.5L78.78-17.5Q78.78-19.68 77.96-21.58 77.14-23.49 75.72-24.91 74.29-26.34 72.37-27.17 70.45-28 68.28-28L68.28-28 64.79-28 64.79-7.01 68.28-7.01Q70.45-7.01 72.37-7.82 74.29-8.64 75.72-10.07 77.14-11.5 77.96-13.42 78.78-15.33 78.78-17.5ZM115.89-13.31L115.89-13.31Q115.89-10.23 114.84-7.69 113.79-5.15 111.98-3.33 110.17-1.51 107.74-0.51 105.31 0.49 102.53 0.49L102.53 0.49Q99.77 0.49 97.34-0.54 94.91-1.56 93.1-3.39 91.28-5.22 90.23-7.75 89.18-10.28 89.18-13.31L89.18-13.31 89.18-36.55 95.87-36.55 95.87-24.34Q96.4-25.02 97.17-25.56 97.94-26.1 98.83-26.44 99.72-26.78 100.68-26.97 101.63-27.15 102.53-27.15L102.53-27.15Q105.31-27.15 107.74-26.11 110.17-25.07 111.98-23.22 113.79-21.36 114.84-18.84 115.89-16.31 115.89-13.31ZM109.17-13.31L109.17-13.31Q109.17-14.82 108.65-16.13 108.12-17.43 107.22-18.38 106.32-19.34 105.11-19.87 103.9-20.41 102.53-20.41L102.53-20.41Q101.16-20.41 99.96-19.81 98.75-19.21 97.84-18.23 96.94-17.24 96.43-15.95 95.92-14.67 95.92-13.31L95.92-13.31Q95.92-11.79 96.43-10.5 96.94-9.2 97.84-8.25 98.75-7.3 99.96-6.75 101.16-6.2 102.53-6.2L102.53-6.2Q103.9-6.2 105.11-6.75 106.32-7.3 107.22-8.25 108.12-9.2 108.65-10.5 109.17-11.79 109.17-13.31ZM126.87-13.99L140.88-13.99 140.88-21Q140.88-22.44 140.33-23.72 139.78-25 138.83-25.95 137.88-26.9 136.6-27.45 135.32-28 133.88-28L133.88-28Q132.44-28 131.15-27.45 129.87-26.9 128.92-25.95 127.97-25 127.42-23.72 126.87-22.44 126.87-21L126.87-21 126.87-13.99ZM147.89-21L147.89 0 140.88 0 140.88-7.01 126.87-7.01 126.87 0 119.89 0 119.89-21Q119.89-23.9 120.99-26.45 122.08-29 123.98-30.91 125.87-32.81 128.42-33.91 130.97-35.01 133.88-35.01L133.88-35.01Q136.78-35.01 139.33-33.91 141.88-32.81 143.79-30.91 145.69-29 146.79-26.45 147.89-23.9 147.89-21L147.89-21ZM182.02-17.5L182.02-17.5Q182.02-15.09 181.4-12.85 180.77-10.62 179.63-8.68 178.48-6.74 176.89-5.14 175.3-3.54 173.35-2.39 171.4-1.25 169.16-0.62 166.93 0 164.51 0L164.51 0 153.97 0 153.97-35.01 164.51-35.01Q166.93-35.01 169.16-34.39 171.4-33.76 173.35-32.62 175.3-31.47 176.89-29.87 178.48-28.27 179.63-26.33 180.77-24.39 181.4-22.16 182.02-19.92 182.02-17.5ZM175.01-17.5L175.01-17.5Q175.01-19.68 174.19-21.58 173.38-23.49 171.95-24.91 170.52-26.34 168.6-27.17 166.69-28 164.51-28L164.51-28 161.02-28 161.02-7.01 164.51-7.01Q166.69-7.01 168.6-7.82 170.52-8.64 171.95-10.07 173.38-11.5 174.19-13.42 175.01-15.33 175.01-17.5ZM193.25-13.99L207.26-13.99 207.26-21Q207.26-22.44 206.71-23.72 206.16-25 205.21-25.95 204.26-26.9 202.98-27.45 201.69-28 200.25-28L200.25-28Q198.81-28 197.53-27.45 196.25-26.9 195.3-25.95 194.35-25 193.8-23.72 193.25-22.44 193.25-21L193.25-21 193.25-13.99ZM214.27-21L214.27 0 207.26 0 207.26-7.01 193.25-7.01 193.25 0 186.26 0 186.26-21Q186.26-23.9 187.36-26.45 188.46-29 190.35-30.91 192.25-32.81 194.8-33.91 197.35-35.01 200.25-35.01L200.25-35.01Q203.16-35.01 205.71-33.91 208.26-32.81 210.17-30.91 212.07-29 213.17-26.45 214.27-23.9 214.27-21L214.27-21Z" opacity="1" transform="matrix(1,0,0,1,0,0)" fill="#0b0900" class="undefined-text-0" data-fill-palette-color="primary" id="text-0"></path></svg></g></svg></g><g transform="matrix(1,0,0,1,163.31020799999996,85.79943851594632)"><svg viewBox="0 0 232.20979200000002 23.434985266128116" height="23.434985266128116" width="232.20979200000002"><g transform="matrix(1,0,0,1,0,0)"><svg width="232.20979200000002" viewBox="4.550000190734863 -35.349998474121094 439.4100036621094 44.349998474121094" height="23.434985266128116" data-palette-color="#131000"><path d="M21.1-8.55L34.85-35.25 37.45-35.25 37.45 0 34.55 0 34.55-29.1 22.2-5.55 19.9-5.55 7.45-28.9 7.5 0 4.55 0 4.55-35.25 7.15-35.25 21.1-8.55ZM55.65 0.35Q52.3 0.35 49.77-1.2 47.25-2.75 45.85-5.6 44.45-8.45 44.45-12.25L44.45-12.25Q44.45-16.05 45.85-18.9 47.25-21.75 49.77-23.3 52.3-24.85 55.65-24.85L55.65-24.85Q58.95-24.85 61.5-23.3 64.05-21.75 65.42-18.9 66.8-16.05 66.8-12.25L66.8-12.25Q66.8-8.45 65.42-5.6 64.05-2.75 61.5-1.2 58.95 0.35 55.65 0.35L55.65 0.35ZM55.6-2.35Q59.45-2.35 61.55-4.9 63.65-7.45 63.65-12.25L63.65-12.25Q63.65-16.95 61.52-19.58 59.4-22.2 55.65-22.2L55.65-22.2Q51.85-22.2 49.75-19.58 47.65-16.95 47.65-12.25L47.65-12.25Q47.65-7.45 49.7-4.9 51.75-2.35 55.6-2.35L55.6-2.35ZM81.8-3.1L90.55-24.25 93.65-24.25 83.25 0 80.15 0 69.8-24.25 73.05-24.25 81.8-3.1ZM101.49 0L98.44 0 98.44-24.25 101.49-24.25 101.49 0ZM97.99-30.65L97.99-34.5 101.99-34.5 101.99-30.65 97.99-30.65ZM129.49-13.1L129.49-11.75 111.14-11.75Q111.29-7.2 113.54-4.78 115.79-2.35 119.94-2.35L119.94-2.35Q124.34-2.35 127.89-5.35L127.89-5.35 129.09-2.95Q127.49-1.45 125.02-0.55 122.54 0.35 119.94 0.35L119.94 0.35Q114.39 0.35 111.19-3 107.99-6.35 107.99-12.2L107.99-12.2Q107.99-15.95 109.42-18.82 110.84-21.7 113.42-23.28 115.99-24.85 119.34-24.85L119.34-24.85Q124.09-24.85 126.79-21.75 129.49-18.65 129.49-13.1L129.49-13.1ZM119.34-22.35Q115.84-22.35 113.74-20.15 111.64-17.95 111.24-14L111.24-14 126.69-14Q126.59-18 124.69-20.18 122.79-22.35 119.34-22.35L119.34-22.35ZM143.74 0.35Q137.99 0.35 134.34-2.9L134.34-2.9 135.49-5.25Q137.44-3.65 139.39-2.98 141.34-2.3 143.89-2.3L143.89-2.3Q146.84-2.3 148.41-3.35 149.99-4.4 149.99-6.3L149.99-6.3Q149.99-7.9 148.94-8.88 147.89-9.85 145.59-10.35L145.59-10.35 141.49-11.3Q138.54-12 136.86-13.73 135.19-15.45 135.19-17.8L135.19-17.8Q135.19-20.95 137.64-22.9 140.09-24.85 144.19-24.85L144.19-24.85Q146.74-24.85 148.96-24.03 151.19-23.2 152.64-21.65L152.64-21.65 151.49-19.3Q149.79-20.8 148.01-21.5 146.24-22.2 144.19-22.2L144.19-22.2Q141.44-22.2 139.89-21.1 138.34-20 138.34-18.05L138.34-18.05Q138.34-16.45 139.31-15.45 140.29-14.45 142.34-13.95L142.34-13.95 146.49-12.95Q153.09-11.45 153.09-6.45L153.09-6.45Q153.09-3.35 150.56-1.5 148.04 0.35 143.74 0.35L143.74 0.35ZM176.58-25.75L176.58-24.25 183.68-24.25 183.68-21.8 176.58-21.8 176.58 0 173.53 0 173.53-21.8 168.73-21.8 168.73-24.25 173.53-24.25 173.53-25.45Q173.53-30.15 175.83-32.58 178.13-35 182.83-35.25L182.83-35.25 184.58-35.35 184.83-32.85 182.53-32.75Q179.48-32.55 178.03-30.83 176.58-29.1 176.58-25.75L176.58-25.75ZM197.48 0.35Q194.13 0.35 191.61-1.2 189.08-2.75 187.68-5.6 186.28-8.45 186.28-12.25L186.28-12.25Q186.28-16.05 187.68-18.9 189.08-21.75 191.61-23.3 194.13-24.85 197.48-24.85L197.48-24.85Q200.78-24.85 203.33-23.3 205.88-21.75 207.26-18.9 208.63-16.05 208.63-12.25L208.63-12.25Q208.63-8.45 207.26-5.6 205.88-2.75 203.33-1.2 200.78 0.35 197.48 0.35L197.48 0.35ZM197.43-2.35Q201.28-2.35 203.38-4.9 205.48-7.45 205.48-12.25L205.48-12.25Q205.48-16.95 203.36-19.58 201.23-22.2 197.48-22.2L197.48-22.2Q193.68-22.2 191.58-19.58 189.48-16.95 189.48-12.25L189.48-12.25Q189.48-7.45 191.53-4.9 193.58-2.35 197.43-2.35L197.43-2.35ZM227.53-24.85L227.78-22.2 225.63-22Q221.68-21.6 219.9-19.45 218.13-17.3 218.13-14.2L218.13-14.2 218.13 0 215.08 0 215.08-24.25 218.08-24.25 218.08-20Q219.18-22.25 221.2-23.38 223.23-24.5 226.23-24.75L226.23-24.75 227.53-24.85ZM266.92 0L245.17 0 245.17-35.25 266.92-35.25 266.92-32.6 248.22-32.6 248.22-19.25 265.92-19.25 265.92-16.55 248.22-16.55 248.22-2.65 266.92-2.65 266.92 0ZM282.37-3.1L291.12-24.25 294.22-24.25 283.82 0 280.72 0 270.37-24.25 273.62-24.25 282.37-3.1ZM318.72-13.1L318.72-11.75 300.37-11.75Q300.52-7.2 302.77-4.78 305.02-2.35 309.17-2.35L309.17-2.35Q313.57-2.35 317.12-5.35L317.12-5.35 318.32-2.95Q316.72-1.45 314.24-0.55 311.77 0.35 309.17 0.35L309.17 0.35Q303.62 0.35 300.42-3 297.22-6.35 297.22-12.2L297.22-12.2Q297.22-15.95 298.64-18.82 300.07-21.7 302.64-23.28 305.22-24.85 308.57-24.85L308.57-24.85Q313.32-24.85 316.02-21.75 318.72-18.65 318.72-13.1L318.72-13.1ZM308.57-22.35Q305.07-22.35 302.97-20.15 300.87-17.95 300.47-14L300.47-14 315.92-14Q315.82-18 313.92-20.18 312.02-22.35 308.57-22.35L308.57-22.35ZM337.52-24.85L337.77-22.2 335.62-22Q331.67-21.6 329.89-19.45 328.12-17.3 328.12-14.2L328.12-14.2 328.12 0 325.07 0 325.07-24.25 328.07-24.25 328.07-20Q329.17-22.25 331.19-23.38 333.22-24.5 336.22-24.75L336.22-24.75 337.52-24.85ZM352.31-3.1L361.06-24.25 364.16-24.25 349.86 9 346.76 9 350.71 0 340.31-24.25 343.56-24.25 352.31-3.1ZM378.36 0.35Q375.01 0.35 372.49-1.2 369.96-2.75 368.56-5.6 367.16-8.45 367.16-12.25L367.16-12.25Q367.16-16.05 368.56-18.9 369.96-21.75 372.49-23.3 375.01-24.85 378.36-24.85L378.36-24.85Q381.66-24.85 384.21-23.3 386.76-21.75 388.14-18.9 389.51-16.05 389.51-12.25L389.51-12.25Q389.51-8.45 388.14-5.6 386.76-2.75 384.21-1.2 381.66 0.35 378.36 0.35L378.36 0.35ZM378.31-2.35Q382.16-2.35 384.26-4.9 386.36-7.45 386.36-12.25L386.36-12.25Q386.36-16.95 384.24-19.58 382.11-22.2 378.36-22.2L378.36-22.2Q374.56-22.2 372.46-19.58 370.36-16.95 370.36-12.25L370.36-12.25Q370.36-7.45 372.41-4.9 374.46-2.35 378.31-2.35L378.31-2.35ZM407.31-24.85Q416.06-24.85 416.06-15.45L416.06-15.45 416.06 0 413.01 0 413.01-15.25Q413.01-18.85 411.56-20.5 410.11-22.15 406.96-22.15L406.96-22.15Q403.36-22.15 401.18-19.95 399.01-17.75 399.01-14.05L399.01-14.05 399.01 0 395.96 0 395.96-24.25 398.96-24.25 398.96-20.1Q400.11-22.4 402.28-23.63 404.46-24.85 407.31-24.85L407.31-24.85ZM443.96-13.1L443.96-11.75 425.61-11.75Q425.76-7.2 428.01-4.78 430.26-2.35 434.41-2.35L434.41-2.35Q438.81-2.35 442.36-5.35L442.36-5.35 443.56-2.95Q441.96-1.45 439.48-0.55 437.01 0.35 434.41 0.35L434.41 0.35Q428.86 0.35 425.66-3 422.46-6.35 422.46-12.2L422.46-12.2Q422.46-15.95 423.88-18.82 425.31-21.7 427.88-23.28 430.46-24.85 433.81-24.85L433.81-24.85Q438.56-24.85 441.26-21.75 443.96-18.65 443.96-13.1L443.96-13.1ZM433.81-22.35Q430.31-22.35 428.21-20.15 426.11-17.95 425.71-14L425.71-14 441.16-14Q441.06-18 439.16-20.18 437.26-22.35 433.81-22.35L433.81-22.35Z" opacity="1" transform="matrix(1,0,0,1,0,0)" fill="#131000" class="undefined-text-1" data-fill-palette-color="secondary" id="text-1"></path></svg></g></svg></g></svg></g></svg></g><g transform="matrix(1,0,0,1,411.906685161018,0)"><svg viewBox="0 0 214.05425026783328 150.96197366682688" height="150.96197366682688" width="214.05425026783328"><g><svg xmlns="http://www.w3.org/2000/svg" xmlns:xlink="http://www.w3.org/1999/xlink" version="1.1" x="0" y="0" viewBox="0.5 10.899999618530273 71.03853607177734 50.099998474121094" enable-background="new 0 0 72 72" xml:space="preserve" height="150.96197366682688" width="214.05425026783328" class="icon-icon-0" data-fill-palette-color="accent" id="icon-0"><g fill="#100505" data-fill-palette-color="accent"><path fill="#100505" d="M70.2 10.9H22.8c-0.6 0-1.1 0.4-1.3 1L8.8 59.4c-0.2 0.8 0.4 1.6 1.3 1.6h47.4c0.6 0 1.1-0.4 1.3-1l12.7-47.5C71.7 11.7 71.1 10.9 70.2 10.9zM19.6 53.1l-1 3.7c-0.2 0.6-0.7 1-1.3 1h-3.6c-0.9 0-1.5-0.8-1.3-1.6l1-3.7c0.2-0.6 0.7-1 1.3-1h3.6C19.2 51.4 19.9 52.2 19.6 53.1zM35.2 18.9l1-3.7c0.2-0.6 0.7-1 1.3-1h3.6c0.9 0 1.5 0.8 1.3 1.6l-1 3.7c-0.2 0.6-0.7 1-1.3 1h-3.6C35.6 20.6 34.9 19.8 35.2 18.9zM22.4 18.9l1-3.7c0.2-0.6 0.7-1 1.3-1h3.6c0.9 0 1.5 0.8 1.3 1.6l-1 3.7c-0.2 0.6-0.7 1-1.3 1h-3.6C22.8 20.6 22.2 19.8 22.4 18.9zM32.4 53.1l-1 3.7c-0.2 0.6-0.7 1-1.3 1h-3.6c-0.9 0-1.5-0.8-1.3-1.6l1-3.7c0.2-0.6 0.7-1 1.3-1h3.6C32 51.4 32.6 52.2 32.4 53.1zM45.1 53.1l-1 3.7c-0.2 0.6-0.7 1-1.3 1h-3.6c-0.9 0-1.5-0.8-1.3-1.6l1-3.7c0.2-0.6 0.7-1 1.3-1h3.6C44.7 51.4 45.3 52.2 45.1 53.1zM45.6 37.2l-11.7 9.3c-1.4 1.1-3 0.3-2.6-1.2l5-18.5c0.4-1.5 2.5-2.3 3.2-1.2l6.8 9.3C46.8 35.5 46.5 36.5 45.6 37.2zM47.9 18.9l1-3.7c0.2-0.6 0.7-1 1.3-1h3.6c0.9 0 1.5 0.8 1.3 1.6l-1 3.7c-0.2 0.6-0.7 1-1.3 1h-3.6C48.3 20.6 47.6 19.8 47.9 18.9zM57.8 53.1l-1 3.7c-0.2 0.6-0.7 1-1.3 1h-3.6c-0.9 0-1.5-0.8-1.3-1.6l1-3.7c0.2-0.6 0.7-1 1.3-1h3.6C57.4 51.4 58 52.2 57.8 53.1zM67.8 15.9l-1 3.7c-0.2 0.6-0.7 1-1.3 1h-3.6c-0.9 0-1.5-0.8-1.3-1.6l1-3.7c0.2-0.6 0.7-1 1.3-1h3.6C67.4 14.2 68 15 67.8 15.9z" data-fill-palette-color="accent"></path><path fill="#100505" d="M3.2 24.1h9.4c1 0 1.7-0.8 1.7-1.7 0-1-0.8-1.7-1.7-1.7H3.2c-1 0-1.7 0.8-1.7 1.7C1.5 23.4 2.3 24.1 3.2 24.1z" data-fill-palette-color="accent"></path><path fill="#100505" d="M2.2 33.2h7.4c1 0 1.7-0.8 1.7-1.7 0-1-0.8-1.7-1.7-1.7H2.2c-1 0-1.7 0.8-1.7 1.7C0.5 32.4 1.3 33.2 2.2 33.2z" data-fill-palette-color="accent"></path><path fill="#100505" d="M8.4 38.8H3.2c-1 0-1.7 0.8-1.7 1.7 0 1 0.8 1.7 1.7 1.7h5.2c1 0 1.7-0.8 1.7-1.7C10.1 39.6 9.3 38.8 8.4 38.8z" data-fill-palette-color="accent"></path><path fill="#100505" d="M5 47.9H2.2c-1 0-1.7 0.8-1.7 1.7 0 1 0.8 1.7 1.7 1.7H5c1 0 1.7-0.8 1.7-1.7C6.7 48.6 6 47.9 5 47.9z" data-fill-palette-color="accent"></path></g></svg></g></svg></g></svg></g><defs></defs></svg><rect width="395.52" height="95.38691066048165" fill="none" stroke="none" visibility="hidden"></rect></g></svg></g></svg>